<?xml version="1.0"?>
<svg
   xmlns="http://www.w3.org/2000/svg"
   xmlns:xlink="http://www.w3.org/1999/xlink"
   xmlns:sodipodi="http://sodipodi.sourceforge.net/DTD/sodipodi-0.dtd"
   xmlns:inkscape="http://www.inkscape.org/namespaces/inkscape"
   width="300"
   height="300"
   viewBox="0 0 141.443 141.443"
   enable-background="new 0 0 141.443 141.443">
 <circle
   fill="#FFFFFF"
   stroke="#DB0029"
   stroke-width="5.0516"
   cx="70.722"
   cy="70.722"
   r="68.196"
   id="circle3016" /> 
 <path
   fill="#FFFFFF"
   stroke="#DB0029"
   stroke-width="5.0516"
   d="M70.722,70.721"
   id="path3018" />
     <polyline
   fill="#DB0029"
   points="56.982,85.68 47.245,99.831 46.156,90.384 35.749,103.078 48.451,81.481 48.57,94.111 55.079,81.308 "
   id="polyline3020" />
     <polyline
   fill="#DB0029"
   points="83.961,56.177 94.063,42.285 94.905,51.756 105.641,39.338 92.38,60.597 92.591,47.968 85.749,60.597 "
   id="polyline3022" />
 <path
   fill="#FFFFFF"
   stroke="#DB0029"
   stroke-width="1.227"
   stroke-linejoin="round"
   d="M88.921,73.446 c0.688-1.564,0.688-4.101,0-5.665l-17.41-39.652c-0.687-1.564-1.8-1.564-2.488,0L51.612,67.781 c-0.687,1.564-0.687,4.101,0,5.665l17.411,39.652c0.688,1.564,1.801,1.564,2.488,0L88.921,73.446z"
   id="path3026" />
 <path
   fill="#FFFFFF"
   stroke="#DB0029"
   stroke-width="1.227"
   stroke-linejoin="round"
   d="M70.267,70.614"
   id="path3028" />
     <path
   fill="none"
   stroke="#FFFFFF"
   stroke-width="1.068"
   stroke-linecap="square"
   d="M71.694,76.44"
   id="path3030" />
     <path

   fill="#0C2E82"
   d="M70.241,30.736l16.427,37.385c0.604,1.377,0.604,3.608,0,4.985l-16.376,37.296 L53.867,73.106c-0.604-1.377-0.604-3.608,0-4.985L70.241,30.736 M56.565,75.153h1.374v-3.501h1.449 c1.038,0,1.094,0.473,1.094,1.695c0,0.922,0.056,1.383,0.149,1.807h1.551v-0.236c-0.299-0.149-0.299-0.474-0.299-1.782 c0-1.67-0.299-1.944-0.851-2.268c0.664-0.299,1.038-1.146,1.038-2.131c0-0.772-0.327-2.529-2.112-2.529h-3.393V75.153z M57.939,70.144V67.75h1.749c0.822,0,0.981,0.698,0.981,1.172c0,0.885-0.355,1.222-1.084,1.222H57.939z M69.367,93.208h-1.361 v7.67h4.602v-1.389h-3.24V93.208z M78.106,75.153h1.375v-3.501h1.447c1.037,0,1.094,0.473,1.094,1.695 c0,0.922,0.057,1.383,0.15,1.807h1.551v-0.236c-0.299-0.149-0.299-0.474-0.299-1.782c0-1.67-0.299-1.944-0.851-2.268 c0.663-0.299,1.038-1.146,1.038-2.131c0-0.772-0.328-2.529-2.113-2.529h-3.393V75.153z M79.481,70.144V67.75h1.746 c0.823,0,0.982,0.698,0.982,1.172c0,0.885-0.355,1.222-1.084,1.222H79.481z M68.877,44.449h2.415l0.42,1.687h1.485 l-2.306-8.182h-1.577l-2.333,8.182h1.44L68.877,44.449z M70.08,39.799h0.019l0.811,3.236h-1.667L70.08,39.799z"
   id="path3032" />
     <polygon

   fill="none"
   stroke="#FFFFFF"
   stroke-width="1.068"
   points="66.396,49.25 74.271,49.25 70.334,56.906 "
   id="polygon3034" />
 <path

   fill="none"
   stroke="#FFFFFF"
   stroke-width="1.068"
   d="M70.359,67.758 c-2.609-0.291-4.554-1.639-4.554-2.981c0-1.334,1.916-2.452,4.496-2.753"
   id="path3038" />
 <path

   fill="none"
   stroke="#FFFFFF"
   stroke-width="1.068"
   d="M71.694,64.777"
   id="path3040" />
     <path

   fill="none"
   stroke="#FFFFFF"
   stroke-width="1.068"
   d="M70.212,69.514"
   id="path3042" />
     <path

   fill="none"
   stroke="#FFFFFF"
   stroke-width="1.068"
   d="M70.267,71.655"
   id="path3044" />
     <path

   fill="none"
   stroke="#FFFFFF"
   stroke-width="1.068"
   d="M70.293,71.661 c0.388,0.042,0.776,0.035,1.193,0.045c2.042,0.042,3.519-0.619,3.519-1.108c0-0.488-1.664-1.152-3.607-1.152 c-0.421,0-0.819,0.019-1.186,0.053"
   id="path3046" />
     <path

   fill="none"
   stroke="#FFFFFF"
   stroke-width="1.068"
   d="M71.486,70.614"
   id="path3048" />
     <path

   fill="none"
   stroke="#FFFFFF"
   stroke-width="1.068"
   d="M70.293,71.661 c-2.609-0.291-4.487-1.66-4.487-3.004c0-1.333,2.005-2.674,4.585-2.975"
   id="path3050" />
     <path

   fill="none"
   stroke="#FFFFFF"
   stroke-width="1.068"
   d="M71.694,68.657"
   id="path3052" />
<path

   fill="none"
   stroke="#FFFFFF"
   stroke-width="1.068"
   d="M70.212,73.465"
   id="path3056" />
 <path

   fill="none"
   stroke="#FFFFFF"
   stroke-width="1.068"
   d="M70.312,75.561"
   id="path3058" />
 <path

   fill="none"
   stroke="#FFFFFF"
   stroke-width="1.068"
   d="M70.312,75.561 c0.389,0.042,0.802,0.066,1.22,0.066c1.942,0,3.474-0.664,3.474-1.152c0-0.489-1.664-1.063-3.607-1.063 c-0.421,0-0.819,0.063-1.186,0.099"
   id="path3060" />
 <path

   fill="none"
   stroke="#FFFFFF"
   stroke-width="1.068"
   d="M71.531,74.742"
   id="path3062" />
 <path

   fill="none"
   stroke="#FFFFFF"
   stroke-width="1.068"
   d="M70.315,75.544 c-2.669-0.297-4.51-1.735-4.51-3.026c0-1.333,1.827-2.718,4.406-3.02"
   id="path3066" />
 <path

   fill="none"
   stroke="#FFFFFF"
   stroke-width="1.068"
   d="M71.694,72.518"
   id="path3068" />
 <path

   fill="none"
   stroke="#FFFFFF"
   stroke-width="1.068"
   d="M70.391,65.682"
   id="path3072" />
 <path

   fill="none"
   stroke="#FFFFFF"
   stroke-width="1.068"
   d="M70.267,67.777"
   id="path3074" />
 <path

   fill="none"
   stroke="#FFFFFF"
   stroke-width="1.068"
   d="M70.359,67.758 c0.389,0.042,0.71,0.085,1.127,0.085c1.942,0,3.519-0.619,3.519-1.107c0-0.489-1.486-1.108-3.429-1.108 c-0.422,0-0.819,0.019-1.186,0.054"
   id="path3076" />
 <path

   fill="none"
   stroke="#FFFFFF"
   stroke-width="1.068"
   d="M71.486,66.736"
   id="path3078" />
     <path

   fill="none"
   stroke="#FFFFFF"
   stroke-width="1.068"
   d="M70.379,62.031"
   id="path3080" />
     <path

   fill="none"
   stroke="#FFFFFF"
   stroke-width="1.068"
   d="M70.379,62.031"
   id="path3082" />
     <path

   fill="none"
   stroke="#FFFFFF"
   stroke-width="1.068"
   d="M70.379,62.031"
   id="path3084" />
     
 <line

   fill="none"
   stroke="#FFFFFF"
   stroke-width="1.068"
   stroke-linecap="square"
   x1="70.604"
   y1="79.244"
   x2="70.599"
   y2="84.244"
   id="line3086" />
     <path

   fill="none"
   stroke="#FFFFFF"
   stroke-width="1.068"
   stroke-linejoin="round"
   d="M70.267,70.614"
   id="path3088" />
     <path

   fill="none"
   stroke="#FFFFFF"
   stroke-width="1.068"
   stroke-linejoin="round"
   d="M70.267,70.614"
   id="path3090" />
     
 <line

   fill="none"
   stroke="#FFFFFF"
   stroke-width="1.068"
   stroke-linecap="square"
   x1="70.335"
   y1="61.986"
   x2="70.349"
   y2="49.339"
   id="line3092" />
     
 <line

   fill="none"
   stroke="#FFFFFF"
   stroke-width="0.7121"
   stroke-linecap="round"
   x1="66.752"
   y1="86.012"
   x2="74.584"
   y2="86.012"
   id="line3094" />
     
 <line

   fill="none"
   stroke="#FFFFFF"
   stroke-width="0.7121"
   stroke-linecap="round"
   x1="67.642"
   y1="87.57"
   x2="73.783"
   y2="87.57"
   id="line3096" />
     
 <line

   fill="none"
   stroke="#FFFFFF"
   stroke-width="0.7121"
   stroke-linecap="round"
   x1="68.439"
   y1="89.127"
   x2="72.937"
   y2="89.127"
   id="line3098" />
     
 <line

   fill="none"
   stroke="#FFFFFF"
   stroke-width="0.7121"
   stroke-linecap="round"
   x1="69.484"
   y1="90.708"
   x2="71.914"
   y2="90.708"
   id="line3100" />
     
 <line

   fill="none"
   stroke="#FFFFFF"
   stroke-width="0.7121"
   stroke-linecap="round"
   x1="75.386"
   y1="84.5"
   x2="65.861"
   y2="84.5"
   id="line3102" />
 <path

   d="M69.386,71.84"
   id="path3106" />
<path

   fill="#0C2E82"
   d="M23.725,47.666l-6.06-7.521l1.581-2.586l9.458,1.961l-1.547,2.532l-1.208-0.324  L24.4,44.26l0.846,0.917L23.725,47.666z M20.78,40.302l2.3,2.485l0.981-1.605L20.78,40.302z"
   id="path3112" />
  <path

   fill="#0C2E82"
   d="M29.134,38.883L22.5,32.665l2.461-2.626l5.234,2.708l-3.04-5.048l2.462-2.625  l6.633,6.219l-1.831,1.953l-2.027-1.9l-1.006-0.995l-1.094-1.233l-0.017,0.018l3.125,5.198l-1.417,1.511l-5.388-2.783  l-0.017,0.018l1.063,0.824l1.075,0.921l2.248,2.107L29.134,38.883z"
   id="path3114" />
  <path

   fill="#0C2E82"
   d="M36.843,30.833l-2.574-9.31l2.478-1.746l7.901,5.557l-2.426,1.709l-0.98-0.777  l-2.426,1.709l0.413,1.177L36.843,30.833z M37.065,22.906l1.123,3.194l1.538-1.084L37.065,22.906z"
   id="path3116" />
  <path

   fill="#0C2E82"
   d="M39.949,17.635l7.476-3.687l1.056,2.141l-2.401,1.185l2.966,6.014l-2.673,1.318  l-2.966-6.015l-2.401,1.184L39.949,17.635z"
   id="path3118" />
  <path

   fill="#0C2E82"
   d="M52.373,21.791l-2.595-8.715l7.105-2.115l0.605,2.033l-4.249,1.265l0.371,1.247  l3.595-1.07l0.605,2.033l-3.595,1.07l0.407,1.368l4.418-1.315l0.605,2.034L52.373,21.791z"
   id="path3120" />
  <path

   fill="#0C2E82"
   d="M59.697,10.344l2.963-0.321l0.587,5.411c0.097,0.892,0.355,1.639,1.573,1.506  c1.067-0.116,1.308-0.828,1.201-1.807l-0.586-5.411l2.963-0.321l0.554,5.11c0.314,2.9-0.892,4.314-3.892,4.639  c-2.8,0.304-4.472-0.594-4.81-3.708L59.697,10.344z"
   id="path3122" />
  <path

   fill="#0C2E82"
   d="M73.79,15.507l-0.238,3.161l-2.972-0.224l0.684-9.067L75.546,9.7  c3.022,0.229,3.955,1.122,3.822,2.885c-0.079,1.045-0.611,1.892-1.691,2.102c0.931,0.425,1.493,0.695,1.354,2.521  c-0.089,1.184-0.157,1.584,0.195,1.611l-0.021,0.277l-3.01-0.227c-0.061-0.207-0.093-0.792-0.031-1.598  c0.089-1.184-0.083-1.589-1.468-1.694L73.79,15.507z M73.94,13.518l1.171,0.088c0.92,0.069,1.428-0.12,1.476-0.75  c0.048-0.642-0.433-0.982-1.125-1.035l-1.386-0.104L73.94,13.518z"
   id="path3124" />
  <path

   fill="#0C2E82"
   d="M87.778,18.103l-1.041,2.994l-2.815-0.979l2.985-8.589l4.056,1.41  c2.863,0.995,3.536,2.098,2.955,3.768c-0.344,0.99-1.075,1.672-2.173,1.598c0.791,0.649,1.265,1.054,0.664,2.784  c-0.39,1.121-0.559,1.491-0.225,1.606l-0.091,0.263l-2.851-0.991c-0.006-0.216,0.113-0.79,0.379-1.553  c0.39-1.122,0.327-1.558-0.985-2.014L87.778,18.103z M88.433,16.218l1.109,0.385c0.871,0.303,1.411,0.25,1.618-0.347  c0.212-0.608-0.166-1.061-0.822-1.289l-1.312-0.456L88.433,16.218z"
   id="path3126" />
  <path

   fill="#0C2E82"
   d="M92.233,22.996l7.319-6.302l2.637,1.495l-1.651,9.517l-2.582-1.464l0.284-1.218  l-2.581-1.464l-0.889,0.875L92.233,22.996z M99.497,19.813l-2.409,2.379l1.637,0.928L99.497,19.813z"
   id="path3128" />
  <path

   fill="#0C2E82"
   d="M100.965,28.077l5.829-6.979l3.062,2.558c2.249,1.878,2.771,4.091,0.852,6.388  c-2.194,2.626-4.499,2.412-6.738,0.542L100.965,28.077z M104.612,28.359l0.484,0.405c1.066,0.891,2.117,0.814,3.219-0.504  c1.214-1.454,1.063-2.238-0.158-3.258l-0.437-0.364L104.612,28.359z"
   id="path3130" />
  <path

   fill="#0C2E82"
   d="M108.134,34.409l6.701-6.146l2.015,2.197l-6.702,6.146L108.134,34.409z"
   id="path3132" />
  <path

   fill="#0C2E82"
   d="M120.235,42.641c-2.552,1.749-5.168,1.015-6.688-1.204  c-1.613-2.354-1.232-4.927,1.32-6.676c2.354-1.613,4.978-1.069,6.577,1.265C123.278,38.704,122.215,41.285,120.235,42.641z   M116.531,37.234c-0.959,0.657-1.957,1.77-1.15,2.947c0.729,1.062,1.931,0.851,3.17,0.001  c1.021-0.699,1.819-1.858,1.046-2.92C118.832,36.147,117.479,36.584,116.531,37.234z"
   id="path3134" />
 <path

   fill="#0C2E82"
   stroke="#000000"
   stroke-width="0.421"
   d="M70.722,70.721"
   id="path3136" />
<path

   fill="#0C2E82"
   d="M10.052,79.875l8.899-1.867l1.522,7.255l-2.077,0.436l-0.91-4.338l-1.273,0.268  l0.77,3.67l-2.076,0.437l-0.771-3.671l-1.396,0.293l0.947,4.511l-2.077,0.436L10.052,79.875z"
   id="path3142" />
  <path

   fill="#0C2E82"
   d="M12.255,89.751l8.379-3.53l1.397,3.317l-4.603,3.679l5.848-0.724l1.397,3.317  l-8.379,3.53l-1.04-2.468l2.561-1.078l1.318-0.515l1.572-0.497l-0.01-0.023l-6.019,0.74l-0.804-1.908l4.734-3.79l-0.01-0.023  l-1.185,0.637l-1.279,0.607l-2.839,1.196L12.255,89.751z"
   id="path3144" />
  <path

   fill="#0C2E82"
   d="M17.798,101.808l7.561-5.05l4.118,6.164l-1.764,1.179l-2.462-3.687l-1.082,0.723  l2.083,3.119l-1.764,1.178l-2.083-3.118l-1.187,0.792l2.561,3.833l-1.764,1.179L17.798,101.808z"
   id="path3146" />
  <path

   fill="#0C2E82"
   d="M27.791,109.914l-2.302,2.179l-2.049-2.165l6.604-6.249l2.951,3.118  c2.083,2.202,2.173,3.49,0.889,4.706c-0.762,0.72-1.725,0.988-2.665,0.417c0.403,0.94,0.637,1.519-0.693,2.777  c-0.862,0.816-1.182,1.066-0.939,1.323l-0.202,0.19l-2.074-2.192c0.094-0.193,0.464-0.647,1.051-1.203  c0.862-0.816,1.008-1.232,0.053-2.241L27.791,109.914z M29.24,108.542l0.807,0.853c0.634,0.67,1.137,0.871,1.596,0.438  c0.468-0.442,0.34-1.019-0.137-1.522l-0.955-1.009L29.24,108.542z"
   id="path3148" />
  <path

   fill="#0C2E82"
   d="M38.305,123.004l-1.551-1.131l0.437-0.791c-0.74,0.179-1.716,0.124-2.869-0.717  c-1.878-1.368-2.676-3.811-0.809-6.371c1.711-2.348,4.355-2.889,6.733-1.155c1.766,1.287,2.515,3.239,1.494,5.261  l-2.286-1.666c0.265-0.729,0.064-1.375-0.558-1.829c-0.949-0.691-2.023-0.161-2.968,1.135  c-0.759,1.041-1.124,2.228,0.09,3.113c0.49,0.356,1.358,0.474,1.853,0.053l-1.062-0.773l1.161-1.592l3.296,2.402  L38.305,123.004z"
   id="path3150" />
  <path

   fill="#0C2E82"
   d="M40.764,124.374l3.983-8.174l6.664,3.247l-0.929,1.907l-3.985-1.941l-0.57,1.169  l3.372,1.644l-0.929,1.906l-3.372-1.643l-0.625,1.283l4.144,2.019l-0.929,1.907L40.764,124.374z"
   id="path3152" />
  <path

   fill="#0C2E82"
   d="M56.809,126.281l0.455-2.024l0.788-2.782l2.746,0.777L58.321,131l-2.686-0.761  l-1.775-5.646l-0.455,2.023l-0.784,2.771l-2.746-0.777l2.476-8.749l2.686,0.761L56.809,126.281z"
   id="path3154" />
  <path

   fill="#0C2E82"
   d="M67.255,126.412c0-0.951-0.54-1.547-1.471-1.634  c-1.043-0.098-1.756,0.736-1.919,2.483c-0.119,1.271,0.046,2.49,1.555,2.632c0.956,0.089,1.471-0.535,1.665-1.392  l2.854,0.267c-0.482,2.314-2.287,3.565-4.676,3.343c-2.992-0.28-4.631-2.285-4.356-5.228c0.274-2.93,2.431-4.567,4.958-4.331  c2.767,0.259,4.185,1.774,4.207,4.123L67.255,126.412z"
   id="path3156" />
  <path

   fill="#0C2E82"
   d="M77.39,131.803l-2.971,0.24l-0.268-3.298l-3.841-5.491l3.323-0.27l1.81,2.945  l1.312-3.198l3.272-0.266l-2.91,5.988L77.39,131.803z"
   id="path3158" />
  <path

   fill="#0C2E82"
   d="M89.543,122.426c-0.15-0.282-0.366-0.409-0.606-0.447  c-0.239-0.039-0.507-0.001-0.782,0.092c-0.621,0.212-0.835,0.484-0.729,0.795c0.438,1.292,5.116-1.192,6.182,1.94  c0.679,1.997-0.654,3.53-3.021,4.335c-2.271,0.772-4.205-0.051-4.794-1.585l2.702-0.918c0.166,0.29,0.41,0.46,0.698,0.522  c0.276,0.066,0.6,0.036,0.874-0.057c0.706-0.24,1.095-0.626,0.956-1.032c-0.442-1.304-5.088,1.276-6.206-2.012  c-0.621-1.829,0.644-3.287,2.796-4.019c2.392-0.812,3.894,0.037,4.609,1.475L89.543,122.426z"
   id="path3160" />
  <path

   fill="#0C2E82"
   d="M96.635,126.583l-4.295-8.015l6.534-3.501l1.002,1.87l-3.907,2.093l0.614,1.146  l3.307-1.771l1.002,1.87l-3.307,1.771l0.674,1.258l4.063-2.177l1.002,1.87L96.635,126.583z"
   id="path3162" />
  <path

   fill="#0C2E82"
   d="M105.669,117.421l1.946,2.502l-2.353,1.829l-5.583-7.176l3.389-2.637  c2.393-1.861,3.684-1.826,4.77-0.431c0.644,0.827,0.817,1.812,0.159,2.692c0.975-0.31,1.572-0.487,2.696,0.958  c0.729,0.938,0.947,1.279,1.227,1.062l0.171,0.219l-2.383,1.854c-0.184-0.113-0.6-0.525-1.097-1.163  c-0.729-0.937-1.129-1.121-2.225-0.269L105.669,117.421z M104.443,115.846l0.928-0.721c0.728-0.566,0.977-1.048,0.589-1.547  c-0.396-0.508-0.98-0.438-1.528-0.011l-1.097,0.854L104.443,115.846z"
   id="path3164" />
  <path

   fill="#0C2E82"
   d="M106.583,109.209l2.015-2.23l5.556,2.874l-3.38-5.282l2.015-2.23l4.631,8.438  l-2.006,2.221L106.583,109.209z"
   id="path3166" />
  <path

   fill="#0C2E82"
   d="M120.612,106.742l-7.489-5.156l1.69-2.454l7.489,5.155L120.612,106.742z"
   id="path3168" />
  <path

   fill="#0C2E82"
   d="M121.348,94.517c-0.885-0.35-1.638-0.067-2.062,0.767  c-0.475,0.934,0.039,1.903,1.604,2.698c1.137,0.578,2.332,0.874,3.02-0.478c0.435-0.855,0.044-1.563-0.682-2.06l1.299-2.556  c1.974,1.301,2.474,3.438,1.387,5.577c-1.361,2.68-3.829,3.466-6.464,2.127c-2.623-1.333-3.352-3.941-2.201-6.204  c1.259-2.478,3.189-3.238,5.381-2.394L121.348,94.517z"
   id="path3170" />
  <path

   fill="#0C2E82"
   d="M128.464,92.305l-8.689-2.678l2.183-7.084l2.027,0.625l-1.305,4.235l1.243,0.384  l1.104-3.585l2.027,0.625l-1.104,3.584l1.363,0.421l1.357-4.405l2.027,0.625L128.464,92.305z"
   id="path3172" />
 <path

   fill="#0C2E82"
   stroke="#000000"
   stroke-width="0.421"
   d="M70.865,70.748"
   id="path3174" />
     <path

   fill="none"
   stroke="#FFFFFF"
   stroke-width="1.068"
   stroke-linecap="square"
   d="M70.538,79.2 c-2.61-0.291-4.732-1.239-4.732-2.82c0-1.333,1.827-2.569,4.406-2.87"
   id="path3176" />
 <path

   fill="#0C2E82"
   d="M125.57,79.132l-0.091,0.266l-1.962-0.673l0.312-0.907 c0.11-0.323,0.333-0.606,0.748-0.464c0.29,0.099,0.346,0.283,0.377,0.434c0.085-0.096,0.172-0.191,0.449-0.108l0.36,0.105 c0.11,0.035,0.156,0.035,0.23-0.031l0.044,0.015l-0.111,0.325c-0.134-0.003-0.435-0.097-0.508-0.123 c-0.161-0.055-0.361-0.087-0.47,0.23l-0.221,0.642L125.57,79.132z M124.502,78.766l0.211-0.615 c0.066-0.194,0.088-0.416-0.202-0.515c-0.303-0.104-0.403,0.109-0.448,0.24l-0.227,0.661L124.502,78.766z"
   id="path3180" />
<circle

   fill="none"
   stroke="#0C2E82"
   stroke-width="0.1624"
   cx="124.689"
   cy="78.293"
   r="2.132"
   id="circle3182" /> 
</svg>